# xmcd
#
# Track frame offsets:
#	150
#	15764
#	33587
#	51449
#	68154
#	86224
#	108175
#	129859
#	146510
#
# Disc length: 2155 seconds
#
# Revision: 0
# Processed by: cddbd v1.5.1PL0 Copyright (c) Steve Scherf et al.
# Submitted via: dBpowerAMP V4.0
#
DISCID=70086909
DTITLE=Nord Nederlands Orkest - Ede Staal
DYEAR=1900
DGENRE=
TTITLE0=Vrouger
TTITLE1=Credo-Mien Bestoan
TTITLE2=Mien Toentje
TTITLE3=Geef mie dien blues
TTITLE4=As vaaier worden
TTITLE5=When the waves are too high
TTITLE6='t Hogelaand
TTITLE7='t Het nog nooit zo donker west
TTITLE8=Vrouger (tougift)
EXTD=
EXTT0=
EXTT1=
EXTT2=
EXTT3=
EXTT4=
EXTT5=
EXTT6=
EXTT7=
EXTT8=
PLAYORDER=
